HIERARCHY
ROOT reference
{
  OFFSET 0 0 0
  CHANNELS 6 Xposition Yposition Zposition Zrotation Xrotation Yrotation
  JOINT Hips
  {
    OFFSET 0.943544 84.9028 18.8381
    CHANNELS 6 Xposition Yposition Zposition Zrotation Xrotation Yrotation
    JOINT Spine
    {
      OFFSET 0 7.59534 0
      CHANNELS 6 Xposition Yposition Zposition Zrotation Xrotation Yrotation
      JOINT Spine1
      {
        OFFSET 0 23.5015 0
        CHANNELS 6 Xposition Yposition Zposition Zrotation Xrotation Yrotation
        JOINT Neck
        {
          OFFSET 0 23.405 2.12773
          CHANNELS 6 Xposition Yposition Zposition Zrotation Xrotation Yrotation
          JOINT Head
          {
            OFFSET 0 12.9677 -1.85252
            CHANNELS 6 Xposition Yposition Zposition Zrotation Xrotation Yrotation
            End Site
            {
              OFFSET 0 23.1565 0
            }
          }
        }
        JOINT LeftShoulder
        {
          OFFSET 3.62206 22.4732 -0.132728
          CHANNELS 6 Xposition Yposition Zposition Zrotation Xrotation Yrotation
          JOINT LeftArm
          {
            OFFSET 8.17784 0 0
            CHANNELS 6 Xposition Yposition Zposition Zrotation Xrotation Yrotation
            JOINT LeftForeArm
            {
              OFFSET 30.104 0 0
              CHANNELS 6 Xposition Yposition Zposition Zrotation Xrotation Yrotation
              JOINT LeftHand
              {
                OFFSET 24.4664 0 0
                CHANNELS 6 Xposition Yposition Zposition Zrotation Xrotation Yrotation
                End Site
                {
                  OFFSET 13.8939 0 0
                }
              }
            }
          }
        }
        JOINT RightShoulder
        {
          OFFSET -3.6336 22.4732 -0.132728
          CHANNELS 6 Xposition Yposition Zposition Zrotation Xrotation Yrotation
          JOINT RightArm
          {
            OFFSET -8.17784 0 0
            CHANNELS 6 Xposition Yposition Zposition Zrotation Xrotation Yrotation
            JOINT RightForeArm
            {
              OFFSET -30.104 0 0
              CHANNELS 6 Xposition Yposition Zposition Zrotation Xrotation Yrotation
              JOINT RightHand
              {
                OFFSET -24.4664 0 0
                CHANNELS 6 Xposition Yposition Zposition Zrotation Xrotation Yrotation
                End Site
                {
                  OFFSET -13.8939 0 0
                }
              }
            }
          }
        }
      }
    }
    JOINT LeftUpLeg
    {
      OFFSET 9.26261 0 0
      CHANNELS 6 Xposition Yposition Zposition Zrotation Xrotation Yrotation
      JOINT LeftLeg
      {
        OFFSET 0 -35.4897 0
        CHANNELS 6 Xposition Yposition Zposition Zrotation Xrotation Yrotation
        JOINT LeftFoot
        {
          OFFSET 0 -38.2023 0
          CHANNELS 6 Xposition Yposition Zposition Zrotation Xrotation Yrotation
          JOINT LeftToeBase
          {
            OFFSET 0 -6.0207 13.8939
            CHANNELS 6 Xposition Yposition Zposition Zrotation Xrotation Yrotation
            End Site
            {
              OFFSET 0 0 3.70504
            }
          }
        }
      }
    }
    JOINT RightUpLeg
    {
      OFFSET -9.26261 0 0
      CHANNELS 6 Xposition Yposition Zposition Zrotation Xrotation Yrotation
      JOINT RightLeg
      {
        OFFSET 0 -35.4897 0
        CHANNELS 6 Xposition Yposition Zposition Zrotation Xrotation Yrotation
        JOINT RightFoot
        {
          OFFSET 0 -38.2023 0
          CHANNELS 6 Xposition Yposition Zposition Zrotation Xrotation Yrotation
          JOINT RightToeBase
          {
            OFFSET 0 -6.0207 13.8939
            CHANNELS 6 Xposition Yposition Zposition Zrotation Xrotation Yrotation
            End Site
            {
              OFFSET 0 0 3.70504
            }
          }
        }
      }
    }
  }
}
MOTION
Frames:	10
Frame Time:	0.004
0 0 0 0 0 -0 -4.24737 80.5052 -152.181 -3.49718 0.755189 -14.3526 0 7.59534 2.84217e-014 -1.71986 -2.17132 -0.076837 -7.10543e-015 23.5015 0 -1.82713 0.89565 -0.030277 0 23.405 2.12773 -9.10114 35.6915 -1.74865 -1.42109e-014 12.9677 -1.85252 -0.100383 15.1431 -3.60494 3.62206 22.4732 -0.132728 -14.1924 11.3987 15.4563 8.17784 0 0 -37.5566 47.9146 -10.0765 30.104 0 0 10.2409 -18.1839 -21.3379 24.4664 -2.84217e-014 0 -4.91994 -16.0271 -7.47971 -3.6336 22.4732 -0.132728 3.86421 31.2979 21.5619 -8.17784 0 -2.84217e-014 35.6649 23.1291 7.30788 -30.104 -7.10543e-015 0 -14.188 -8.57466 32.0368 -24.4664 0 0 9.48503 -4.03655 5.68393 9.26261 1.42109e-014 2.84217e-014 7.55133 -4.81537 5.07148 0 -35.4897 2.84217e-014 -7.8038 10.9645 0.770592 0 -38.2023 0 -3.49554 1.93635 11.2887 -1.77636e-015 -6.0207 13.8939 -2.18663e-015 1.59028e-015 -0 -9.26261 0 0 -2.37569 -9.38307 -0.025598 0 -35.4897 0 -5.206 48.8495 4.33593 0 -38.2023 -2.84217e-014 -5.15448 20.869 13.0158 0 -6.0207 13.8939 3.97569e-016 3.18055e-015 -1.98785e-016 
0 0 0 0 0 -0 -4.19259 80.5477 -152.006 -3.5537 0.677442 -14.3277 0 7.59534 0 -1.73636 -2.12632 -0.153377 0 23.5015 -2.84217e-014 -1.75588 0.896405 -0.107635 7.10543e-015 23.405 2.12773 -9.08949 35.688 -1.77061 1.42109e-014 12.9677 -1.85252 -0.255685 15.2317 -3.62649 3.62206 22.4732 -0.132728 -14.214 11.3981 15.3496 8.17784 0 -2.84217e-014 -37.4329 47.9912 -10.2502 30.104 0 0 10.2108 -18.1975 -21.3241 24.4664 0 2.84217e-014 -4.85466 -16.0539 -7.42389 -3.6336 22.4732 -0.132728 3.89318 31.2712 21.4266 -8.17784 0 0 35.7743 23.2229 7.26896 -30.104 -1.42109e-014 -2.84217e-014 -14.239 -8.6228 31.8835 -24.4664 -1.42109e-014 0 9.4949 -4.09518 5.62742 9.26261 0 0 7.45646 -4.5464 4.92248 0 -35.4897 0 -7.74256 10.8003 0.959091 0 -38.2023 2.84217e-014 -3.52502 1.99013 11.2417 0 -6.0207 13.8939 -4.96962e-016 0 -3.97569e-016 -9.26261 0 0 -2.32542 -9.88499 -0.299586 0 -35.4897 2.84217e-014 -5.56005 49.7109 4.62068 0 -38.2023 0 -5.18657 20.9194 13.122 -3.55271e-015 -6.0207 13.8939 7.95139e-016 -3.18055e-015 -1.98785e-016 
0 0 0 0 0 -0 -4.14255 80.5878 -151.844 -3.61322 0.608827 -14.2965 0 7.59534 -2.84217e-014 -1.76138 -2.08488 -0.23717 0 23.5015 0 -1.66579 0.908494 -0.191939 0 23.405 2.12773 -9.14862 35.6381 -1.73917 -1.42109e-014 12.9677 -1.85252 -0.360417 15.3612 -3.601 3.62206 22.4732 -0.132728 -14.2736 11.441 15.2649 8.17784 2.84217e-014 -2.84217e-014 -37.188 48.3855 -10.5095 30.104 1.42109e-014 0 10.3158 -18.4079 -21.2454 24.4664 0 0 -4.90761 -16.2489 -7.4846 -3.6336 22.4732 -0.132728 3.91474 31.2361 21.2982 -8.17784 0 0 35.8296 23.1698 7.2235 -30.104 7.10543e-015 0 -14.058 -8.58369 31.8538 -24.4664 1.42109e-014 0 9.24503 -4.13603 5.4833 9.26261 0 2.84217e-014 7.37398 -4.31425 4.82605 -3.55271e-015 -35.4897 0 -7.67975 10.6873 1.03095 0 -38.2023 0 -3.50328 2.02546 11.2707 0 -6.0207 13.8939 6.4605e-016 -1.59028e-015 -3.97569e-016 -9.26261 0 0 -2.27289 -10.4066 -0.46015 0 -35.4897 0 -5.768 50.6104 4.81713 0 -38.2023 0 -5.22918 20.9572 13.0722 3.55271e-015 -6.0207 13.8939 3.97569e-016 0 -1.98785e-016 
0 0 0 0 0 -0 -4.08862 80.6281 -151.675 -3.67066 0.525962 -14.2869 0 7.59534 0 -1.77806 -2.05818 -0.293833 0 23.5015 0 -1.54671 0.982135 -0.248687 -7.10543e-015 23.405 2.12773 -9.28522 35.5559 -1.68761 1.42109e-014 12.9677 -1.85252 -0.393055 15.4642 -3.56574 3.62206 22.4732 -0.132728 -14.3935 11.4197 15.1531 8.17784 -1.42109e-014 -2.84217e-014 -36.9366 48.11 -10.7465 30.104 -2.84217e-014 0 10.0359 -18.1938 -21.3072 24.4664 -1.42109e-014 1.42109e-014 -4.79573 -16.0829 -7.5323 -3.6336 22.4732 -0.132728 3.96365 31.1342 21.1183 -8.17784 0 0 35.9058 23.113 7.13816 -30.104 -7.10543e-015 0 -14.0618 -8.49729 31.7715 -24.4664 -1.42109e-014 -2.84217e-014 9.81373 -4.029 5.51152 9.26261 -1.42109e-014 -2.84217e-014 7.28001 -4.0385 4.6949 -3.55271e-015 -35.4897 -2.84217e-014 -7.6237 10.5323 1.13552 -3.55271e-015 -38.2023 -2.84217e-014 -3.42117 2.05276 11.3056 0 -6.0207 13.8939 -5.96354e-016 1.59028e-015 -0 -9.26261 -1.42109e-014 0 -2.24109 -10.8684 -0.377787 0 -35.4897 -1.42109e-014 -5.65833 51.4485 4.60894 -7.10543e-015 -38.2023 0 -5.33926 20.85 13.0507 -3.55271e-015 -6.0207 13.8939 3.97569e-016 6.36111e-015 -3.97569e-016 
0 0 0 0 0 -0 -4.03566 80.6665 -151.504 -3.73281 0.445257 -14.2774 -1.42109e-014 7.59534 0 -1.71981 -1.92574 -0.423326 7.10543e-015 23.5015 2.84217e-014 -1.64604 0.77533 -0.383323 -7.10543e-015 23.405 2.12773 -9.21518 35.6759 -1.58886 0 12.9677 -1.85252 -0.593315 15.5138 -3.46228 3.62206 22.4732 -0.132728 -14.3435 11.6365 15.2605 8.17784 1.42109e-014 2.84217e-014 -36.6589 48.4331 -11.1647 30.104 -1.42109e-014 0 10.206 -18.3209 -21.1563 24.4664 0 0 -4.94775 -16.1832 -7.55687 -3.6336 22.4732 -0.132728 3.9854 31.2424 21.1572 -8.17784 1.42109e-014 -2.84217e-014 35.9764 23.1083 7.06732 -30.104 0 0 -13.9798 -8.47157 31.6898 -24.4664 0 0 9.78355 -4.03237 5.58811 9.26261 1.42109e-014 0 7.1848 -3.76158 4.56223 1.77636e-015 -35.4897 2.84217e-014 -7.55563 10.3729 1.27136 -3.55271e-015 -38.2023 -2.84217e-014 -3.37696 2.06859 11.2966 0 -6.0207 13.8939 -4.47266e-016 0 -0 -9.26261 0 2.84217e-014 -2.17075 -11.3888 -0.45897 0 -35.4897 0 -5.85168 52.3423 4.64579 0 -38.2023 0 -5.38578 20.8714 13.0234 0 -6.0207 13.8939 -0 0 1.98785e-016 
0 0 0 0 0 -0 -3.98437 80.7056 -151.342 -3.80836 0.37126 -14.277 0 7.59534 0 -1.77697 -1.94501 -0.446663 0 23.5015 -2.84217e-014 -1.4224 0.907204 -0.405398 0 23.405 2.12773 -9.27734 35.6446 -1.60377 -2.84217e-014 12.9677 -1.85252 -0.677443 15.5514 -3.48718 3.62206 22.4732 -0.132728 -14.4651 11.555 15.0428 8.17784 1.42109e-014 -2.84217e-014 -36.4768 48.2986 -11.3393 30.104 1.42109e-014 0 10.0244 -18.155 -21.1826 24.4664 0 0 -4.97986 -16.0459 -7.51067 -3.6336 22.4732 -0.132728 3.99039 31.1632 20.9147 -8.17784 0 0 36.004 22.9785 7.01685 -30.104 -2.13163e-014 -2.84217e-014 -13.7621 -8.39487 31.72 -24.4664 0 2.84217e-014 9.60524 -4.03329 5.46024 9.26261 0 0 7.11443 -3.49687 4.42123 0 -35.4897 0 -7.51084 10.2148 1.45998 3.55271e-015 -38.2023 2.84217e-014 -3.29516 2.10883 11.2939 0 -6.0207 13.8939 2.28602e-015 -3.18055e-015 -1.19271e-015 -9.26261 0 0 -2.12355 -11.8821 -0.499396 -7.10543e-015 -35.4897 0 -5.90066 53.1823 4.73999 0 -38.2023 -2.84217e-014 -5.32738 20.8537 12.796 -7.10543e-015 -6.0207 13.8939 -0 -6.36111e-015 -0 
0 0 0 0 0 -0 -3.93432 80.7429 -151.177 -3.88123 0.301524 -14.2794 7.10543e-015 7.59534 2.84217e-014 -1.69307 -1.83985 -0.547874 0 23.5015 -2.84217e-014 -1.55361 0.751411 -0.510509 7.10543e-015 23.405 2.12773 -9.12104 35.7544 -1.56393 0 12.9677 -1.85252 -0.894221 15.5754 -3.42699 3.62206 22.4732 -0.132728 -14.3856 11.7091 14.98 8.17784 0 -2.84217e-014 -36.3547 48.4163 -11.522 30.104 0 -2.84217e-014 10.1056 -18.1986 -21.1453 24.4664 1.42109e-014 0 -5.02458 -16.0766 -7.48829 -3.6336 22.4732 -0.132728 4.11964 31.2232 20.8765 -8.17784 1.42109e-014 2.84217e-014 36.0529 22.9455 6.9173 -30.104 1.42109e-014 2.84217e-014 -13.6002 -8.39156 31.6539 -24.4664 0 0 9.34743 -4.10545 5.36089 9.26261 0 2.84217e-014 7.04726 -3.25064 4.31267 0 -35.4897 0 -7.46139 10.0937 1.58801 0 -38.2023 0 -3.20558 2.12017 11.2929 0 -6.0207 13.8939 -9.93923e-017 0 7.95139e-016 -9.26261 -1.42109e-014 0 -2.03281 -12.4439 -0.634393 7.10543e-015 -35.4897 2.84217e-014 -6.14956 54.0634 4.68947 0 -38.2023 0 -5.34374 20.8785 12.8377 0 -6.0207 13.8939 7.95139e-016 3.18055e-015 -1.98785e-016 
0 0 0 0 0 -0 -3.88565 80.7789 -151.01 -3.95012 0.218209 -14.2783 0 7.59534 0 -1.68459 -1.80023 -0.613823 -7.10543e-015 23.5015 0 -1.47844 0.757712 -0.577664 0 23.405 2.12773 -9.13248 35.7514 -1.54432 1.42109e-014 12.9677 -1.85252 -1.04164 15.6345 -3.40891 3.62206 22.4732 -0.132728 -14.4386 11.723 14.9123 8.17784 2.84217e-014 0 -36.1248 48.5429 -11.7981 30.104 -1.42109e-014 0 10.11 -18.1387 -21.0615 24.4664 7.10543e-015 1.42109e-014 -5.01311 -16.0167 -7.64568 -3.6336 22.4732 -0.132728 4.14465 31.1947 20.7538 -8.17784 0 0 36.1255 22.9493 6.83588 -30.104 7.10543e-015 0 -13.4289 -8.39863 31.5592 -24.4664 -1.42109e-014 0 9.04123 -4.18583 5.39046 9.26261 0 0 6.97188 -2.98076 4.19123 0 -35.4897 0 -7.41622 9.94756 1.7459 3.55271e-015 -38.2023 2.84217e-014 -3.10946 2.12144 11.2766 -1.77636e-015 -6.0207 13.8939 4.96962e-016 6.36111e-015 7.95139e-016 -9.26261 0 0 -1.97783 -12.9449 -0.690056 0 -35.4897 0 -6.25941 54.9032 4.66353 0 -38.2023 0 -5.53093 20.8114 12.857 0 -6.0207 13.8939 3.97569e-016 3.18055e-015 1.98785e-016 
0 0 0 0 0 -0 -3.83879 80.8157 -150.831 -4.04971 0.099241 -14.2235 0 7.59534 -2.84217e-014 -1.67193 -1.73713 -0.700655 0 23.5015 0 -1.33805 0.804373 -0.666023 0 23.405 2.12773 -9.21189 35.6695 -1.50872 0 12.9677 -1.85252 -1.16029 15.7851 -3.3784 3.62206 22.4732 -0.132728 -14.5388 11.7775 14.8363 8.17784 -2.84217e-014 0 -35.8197 48.6257 -12.1474 30.104 1.42109e-014 0 10.102 -18.0578 -21.0554 24.4664 -7.10543e-015 0 -5.03842 -15.9432 -7.45647 -3.6336 22.4732 -0.132728 4.08994 31.1593 20.6085 -8.17784 0 0 36.255 23.0803 6.79855 -30.104 0 0 -13.4766 -8.50977 31.3703 -24.4664 0 0 9.21537 -4.28532 5.57271 9.26261 -1.42109e-014 0 6.91929 -2.68058 4.02919 0 -35.4897 2.84217e-014 -7.38356 9.82205 1.91691 3.55271e-015 -38.2023 0 -3.04173 2.14435 11.2707 0 -6.0207 13.8939 1.39149e-015 1.59028e-015 3.97569e-016 -9.26261 0 0 -1.92077 -13.3942 -0.86824 0 -35.4897 -2.84217e-014 -6.4509 55.7279 4.69711 7.10543e-015 -38.2023 2.84217e-014 -5.59678 20.7199 12.842 -3.55271e-015 -6.0207 13.8939 3.97569e-016 0 5.96354e-016 
0 0 0 0 0 -0 -3.78512 80.8475 -150.669 -4.10234 0.031628 -14.2269 7.10543e-015 7.59534 0 -1.65506 -1.71197 -0.760102 0 23.5015 0 -1.29868 0.802325 -0.726341 7.10543e-015 23.405 2.12773 -9.20731 35.5257 -1.44976 0 12.9677 -1.85252 -1.27867 16.0904 -3.29881 3.62206 22.4732 -0.132728 -14.5603 11.8 14.7464 8.17784 -1.42109e-014 -2.84217e-014 -35.5641 48.8373 -12.4424 30.104 -2.84217e-014 0 10.1409 -18.0802 -20.9716 24.4664 7.10543e-015 -1.42109e-014 -5.01792 -15.9633 -7.55875 -3.6336 22.4732 -0.132728 4.13747 31.1397 20.4661 -8.17784 1.42109e-014 -2.84217e-014 36.3499 23.1054 6.72083 -30.104 2.13163e-014 0 -13.4243 -8.55387 31.26 -24.4664 -1.42109e-014 0 9.2168 -4.35914 5.56587 9.26261 1.42109e-014 0 6.82867 -2.45315 4.0067 0 -35.4897 2.84217e-014 -7.32042 9.72147 1.99006 3.55271e-015 -38.2023 2.84217e-014 -3.08364 2.17787 11.304 0 -6.0207 13.8939 7.95139e-016 0 -0 -9.26261 0 2.84217e-014 -1.89441 -13.9482 -0.982808 0 -35.4897 -1.42109e-014 -6.62237 56.5715 4.62061 0 -38.2023 0 -5.79085 20.6602 12.9583 0 -6.0207 13.8939 -2.20695e-032 3.18055e-015 3.97569e-016 
